<?xml version="1.0" encoding="utf-8"?>
<svg viewBox="0 0 500 500" xmlns="http://www.w3.org/2000/svg">
  <path fill-rule="evenodd" clip-rule="evenodd" d="M 85.767 193.114 C 85.767 273.866 149.282 339.748 228.971 343.31 C 230.677 339.813 232.619 335.543 234.562 330.669 C 240.312 316.251 245.767 297.317 245.767 277.811 C 245.767 244.027 237.075 223.746 227.414 203.428 C 226.731 201.991 226.039 200.548 225.342 199.094 C 215.923 179.451 205.575 157.871 204.279 125.661 C 203.163 97.918 207.716 73.618 212.509 56.296 C 213.775 51.717 215.064 47.606 216.28 44.024 C 142.644 53.599 85.767 116.699 85.767 193.114 Z" fill="#393232"/>
  <path d="M 261.267 343.948 C 331.24 331.216 385.767 267.559 385.767 193.752 C 385.767 186.867 385.305 180.089 384.411 173.449 C 383.221 173.623 382.005 173.713 380.767 173.713 C 366.96 173.713 355.767 162.495 355.767 148.656 C 355.767 148.148 355.782 147.643 355.812 147.143 C 354.182 147.477 352.495 147.653 350.767 147.653 C 336.96 147.653 325.767 136.434 325.767 122.595 C 325.767 117.147 327.502 112.105 330.447 107.994 C 319.196 105.55 310.767 95.514 310.767 83.504 C 310.767 77.278 313.033 71.581 316.784 67.199 C 296.804 54.322 273.578 46.069 248.608 43.948 C 248.228 44.843 247.766 45.968 247.243 47.307 C 245.654 51.377 243.511 57.401 241.418 64.968 C 237.217 80.152 233.296 101.252 234.255 125.087 C 235.295 150.946 243.214 167.517 252.63 187.22 L 254.495 191.128 C 264.959 213.133 275.767 238.159 275.767 278.449 C 275.767 302.792 267.697 327.637 261.267 343.948 Z" fill="#393232"/>
  <text fill="#393232" style="white-space: pre;" font-family="Poppins" font-size="80" font-weight="bold" letter-spacing="0.06em" x="65.073" y="33.407"><tspan x="65.073" y="441.407" style="font-size: 96.8px; word-spacing: 0px; letter-spacing: 5.81px;">COFFE</tspan></text>
</svg>