<svg width="301" height="300" viewBox="0 0 301 300" fill="none" xmlns="http://www.w3.org/2000/svg">
<path fill-rule="evenodd" clip-rule="evenodd" d="M0.0400391 149.804C0.0400391 230.556 63.5553 296.438 143.244 300C144.951 296.503 146.892 292.233 148.836 287.359C154.585 272.941 160.04 254.007 160.04 234.501C160.04 200.717 151.348 180.436 141.687 160.118C141.004 158.681 140.312 157.238 139.615 155.784C130.196 136.141 119.848 114.561 118.552 82.3509C117.436 54.6082 121.989 30.308 126.782 12.9856C128.048 8.40718 129.337 4.29576 130.553 0.713972C56.9169 10.2887 0.0400391 73.3889 0.0400391 149.804Z" fill="#393232"/>
<path d="M175.54 300C245.513 287.268 300.04 223.611 300.04 149.804C300.04 142.919 299.578 136.141 298.684 129.501C297.494 129.675 296.278 129.765 295.04 129.765C281.233 129.765 270.04 118.547 270.04 104.708C270.04 104.2 270.055 103.695 270.085 103.195C268.455 103.529 266.768 103.705 265.04 103.705C251.233 103.705 240.04 92.4861 240.04 78.647C240.04 73.1992 241.775 68.1573 244.72 64.0461C233.469 61.6021 225.04 51.566 225.04 39.5567C225.04 33.3299 227.306 27.6335 231.057 23.2509C211.077 10.3747 187.851 2.12184 162.881 0C162.501 0.895396 162.039 2.02017 161.516 3.35949C159.927 7.42913 157.784 13.4534 155.691 21.0205C151.49 36.2043 147.569 57.3046 148.528 81.1393C149.568 106.998 157.487 123.569 166.903 143.272L168.768 147.181C179.232 169.185 190.04 194.211 190.04 234.501C190.04 258.844 181.97 283.689 175.54 300Z" fill="#393232"/>
</svg>
