<svg width="300" height="300" viewBox="0 0 300 300" fill="none" xmlns="http://www.w3.org/2000/svg">
<path fill-rule="evenodd" clip-rule="evenodd" d="M0 149.458C0 230.023 63.5153 295.753 143.204 299.307C144.91 295.818 146.852 291.558 148.795 286.696C154.545 272.311 160 253.42 160 233.959C160 200.253 151.308 180.019 141.647 159.748C140.964 158.315 140.272 156.875 139.575 155.424C130.156 135.827 119.808 114.296 118.512 82.1606C117.396 54.4821 121.949 30.238 126.742 12.9555C128.008 8.38775 129.297 4.28583 130.513 0.712322C56.8769 10.2649 0 73.2193 0 149.458Z" fill="white"/>
<path d="M175.5 299.307C245.473 286.605 300 223.095 300 149.458C300 142.588 299.538 135.827 298.644 129.202C297.454 129.376 296.238 129.466 295 129.466C281.193 129.466 270 118.273 270 104.466C270 103.959 270.015 103.455 270.045 102.956C268.415 103.29 266.728 103.465 265 103.465C251.193 103.465 240 92.2725 240 78.4653C240 73.03 241.735 67.9999 244.68 63.8981C233.429 61.4598 225 51.4469 225 39.4653C225 33.2529 227.266 27.5697 231.017 23.1972C211.037 10.3508 187.811 2.11694 162.841 0C162.461 0.893327 161.999 2.0155 161.476 3.35173C159.887 7.41197 157.744 13.4223 155.651 20.9719C151.45 36.1206 147.529 57.1722 148.488 80.9519C149.528 106.751 157.447 123.284 166.863 142.941L168.728 146.84C179.192 168.795 190 193.762 190 233.959C190 258.246 181.93 283.034 175.5 299.307Z" fill="white"/>
</svg>
